<?xml version="1.0" encoding="UTF-8"?><svg id="Layer_2" xmlns="http://www.w3.org/2000/svg" xmlns:xlink="http://www.w3.org/1999/xlink" viewBox="0 0 1281.05 245.43"><defs><style>.cls-1{fill:url(#linear-gradient-2);}.cls-2{fill:#040440;}.cls-3{fill:url(#linear-gradient-3);}.cls-4{fill:url(#linear-gradient);}.cls-5{fill:#0656cc;}</style><linearGradient id="linear-gradient" x1="251.11" y1="47.15" x2="169.7" y2="128.56" gradientUnits="userSpaceOnUse"><stop offset="0" stop-color="#00fcf3"/><stop offset="1" stop-color="#24b0fc"/></linearGradient><linearGradient id="linear-gradient-2" x1="0" y1="137.64" x2="210.73" y2="137.64" gradientUnits="userSpaceOnUse"><stop offset="0" stop-color="#09f6fc"/><stop offset="1" stop-color="#0074f9"/></linearGradient><linearGradient id="linear-gradient-3" x1="158.14" y1="99.88" x2="99.82" y2="158.21" xlink:href="#linear-gradient-2"/></defs><g id="Layer_1-2"><g><g><path class="cls-2" d="M473.22,46.32v33.9h-50.36V220.8h-35.64V80.22h-50.1V46.32h136.1Z"/><path class="cls-2" d="M503.87,20.4c6.48,0,11.8,1.96,15.95,5.85,4.16,3.91,6.24,8.94,6.24,15.08s-2.08,11.22-6.24,15.2c-4.16,4-9.47,5.98-15.95,5.98s-11.58-1.99-15.82-5.98c-4.24-3.99-6.36-9.05-6.36-15.2s2.12-10.96,6.36-14.95c4.24-3.99,9.5-5.98,15.82-5.98Zm-17.94,200.4V83.71h35.64V220.8h-35.64Z"/><path class="cls-2" d="M704.27,80.72c14.62,0,26.17,4.74,34.65,14.21,8.47,9.47,12.71,22.52,12.71,39.14v86.74h-35.64v-79.02c0-8.97-1.87-15.74-5.61-20.32-3.74-4.56-9.77-6.85-18.07-6.85-9.31,0-16.37,2.95-21.19,8.84-4.82,5.9-7.22,14.33-7.22,25.31v72.03h-35.65v-79.02c0-8.97-1.87-15.74-5.61-20.32-3.73-4.56-9.76-6.85-18.07-6.85-9.3,0-16.41,2.95-21.31,8.84-4.9,5.9-7.35,14.33-7.35,25.31l.25,72.03h-35.89V83.71h35.89v18.2c9.97-14.12,23.51-21.19,40.63-21.19,19.94,0,33.81,8.64,41.62,25.92,10.63-17.28,25.92-25.92,45.86-25.92Z"/><path class="cls-2" d="M837.13,80.72c22.42,0,40.16,7.73,53.22,23.19,13.04,15.46,18.65,34.65,16.83,57.58h-105.2c1.17,10.64,4.99,18.78,11.47,24.42,6.48,5.66,14.53,8.48,24.18,8.48,6.98,0,13.21-1.53,18.69-4.61,5.49-3.07,9.38-7.26,11.71-12.59h36.89c-4.82,15.46-13.3,27.09-25.42,34.9-12.14,7.81-26.02,11.71-41.63,11.71-21.27,0-38.63-6.73-52.09-20.19-13.46-13.46-20.19-30.49-20.19-51.1s6.73-37.72,20.19-51.34c13.46-13.63,30.57-20.45,51.35-20.45Zm-.25,29.41c-8.48,0-15.54,2.29-21.19,6.86-5.65,4.57-9.64,10.68-11.97,18.32h65.56c-2-7.64-5.82-13.74-11.47-18.32-5.65-4.56-12.63-6.86-20.93-6.86Z"/><path class="cls-2" d="M1041.02,220.8l-14.71-41.13h-70.54l-14.96,41.13h-37.64l65.31-174.48h45.11l65.31,174.48h-37.88Zm-73.03-75.02h45.86l-22.93-63.32-22.93,63.32Z"/><path class="cls-2" d="M1168.13,46.32c18.95,0,34.03,5.23,45.24,15.7,11.22,10.47,16.83,24.77,16.83,42.87s-5.66,32.78-16.96,43.5c-11.3,10.71-26.34,16.08-45.11,16.08h-37.64v56.33h-35.64V46.32h73.28Zm-1.49,84.24c8.97,0,15.78-2.24,20.44-6.72,4.65-4.48,6.98-10.63,6.98-18.45s-2.33-14.16-6.98-18.57c-4.66-4.4-11.47-6.6-20.44-6.6h-36.15v50.35h36.15Z"/><path class="cls-2" d="M1245.41,220.8V46.32h35.64V220.8h-35.64Z"/></g><g><path class="cls-4" d="M280.73,145.85c-7.69,14.68-22.71,23.74-39.24,23.74h-30.76c3.12-10.11,4.81-20.83,4.81-31.94,0-4.57-.27-9.05-.85-13.47-3.36-26.98-16.74-50.87-36.27-67.85-11.48-9.99-25.07-17.59-40.03-22.04l10.51-15.11C157.17,7.21,170.86,0,185.48,0h.06c14.59,0,28.28,7.18,36.61,19.2l55.68,80.45c9.57,13.62,10.69,31.37,2.91,46.2Z"/><path class="cls-1" d="M161.29,169.59c-10.87,18.23-30.79,30.43-53.53,30.43-34.37,0-62.34-27.98-62.34-62.37s27.98-62.37,62.34-62.37c.7,0,1.39,0,2.09,.06l28.55-41.06c-9.72-2.88-20.01-4.42-30.64-4.42C48.32,29.85,0,78.21,0,137.64s48.32,107.79,107.76,107.79c48.32,0,89.32-31.97,102.97-75.85h-49.44Z"/><path class="cls-5" d="M215.55,137.64c0,11.11-1.7,21.83-4.81,31.94h-49.44c5.63-9.36,8.84-20.29,8.84-31.94,0-4.63-.51-9.14-1.48-13.47-2.54-11.6-8.36-22.01-16.41-30.19-10.84-11.08-25.8-18.14-42.39-18.65l28.55-41.06c14.96,4.45,28.55,12.05,40.03,22.04,19.53,16.99,32.91,40.87,36.27,67.85,.58,4.42,.85,8.9,.85,13.47Z"/><path class="cls-3" d="M170.13,137.64c0,11.66-3.21,22.59-8.84,31.94h-31.58c-16.59,0-31.7-9.08-39.45-23.77-7.75-14.68-6.75-32.34,2.63-46.08l16.96-24.4c16.59,.51,31.55,7.57,42.39,18.65,8.05,8.18,13.87,18.59,16.41,30.19,.97,4.33,1.48,8.84,1.48,13.47Z"/></g></g></g></svg>